# xmcd CD database file
#
# Track frame offsets:
#	150
#	20176
#	41170
#	55997
#	77524
#	90864
#	108104
#	122049
#	136872
#	149297
#	168306
#	187668
#	203772
#	220554
#
# Disc length: 3228 seconds
#
# Revision: 5
# Processed by: cddbd v1.5.2PL0 Copyright (c) Steve Scherf et al.
# Submitted via: CDex 2.21
#
DISCID=b10c9a0e
DTITLE=Miranda Lambert - Four The Record
DYEAR=2011
DGENRE=Country
TTITLE0=All Kinds of Kinds
TTITLE1=Fine Tune
TTITLE2=Fastest Girl in Town
TTITLE3=Safe
TTITLE4=Mama's Broken Heart
TTITLE5=Dear Diamond
TTITLE6=Same Old You
TTITLE7=Baggage Claim (Radio Edit)
TTITLE8=Easy Living
TTITLE9=Over You
TTITLE10=Look at Miss Ohio
TTITLE11=Better In the Long Run
TTITLE12=Nobody's Fool
TTITLE13=Oklahoma Sky
EXTD=YEAR: 2011
EXTT0=
EXTT1=
EXTT2=
EXTT3=
EXTT4=
EXTT5=
EXTT6=
EXTT7=
EXTT8=
EXTT9=
EXTT10=
EXTT11=
EXTT12=
EXTT13=
PLAYORDER=
